<svg width="1200" height="400" viewBox="0 0 1200 400" xmlns="http://www.w3.org/2000/svg">
      <path fill="#008080" d="M0,256C40,245.3,80,235,120,208C160,181,200,117,240,112C280,107,320,160,360,186.7C400,213,440,213,480,208C520,203,560,192,600,176C640,160,680,128,720,138.7C760,149,800,203,840,224C880,245,920,235,960,213.3C1000,192,1040,160,1080,138.7C1120,117,1160,107,1180,101.3L1200,96L1200,0L1180,0C1160,0,1120,0,1080,0C1040,0,1000,0,960,0C920,0,880,0,840,0C800,0,760,0,720,0C680,0,640,0,600,0C560,0,520,0,480,0C440,0,400,0,360,0C320,0,280,0,240,0C200,0,160,0,120,0C80,0,40,0,0,0Z"></path>
    </svg>
