<svg width="1200" height="400" viewBox="0 0 1200 400" xmlns="http://www.w3.org/2000/svg">
      <path fill="#008080" d="M0,256C40,245.3,80,235,120,208C160,181,200,117,240,112C280,107,320,160,360,186.7C400,213,440,213,480,208C520,203,560,192,600,176C640,160,680,128,720,138.7C760,149,800,203,840,224C880,245,920,235,960,213.3C1000,192,1040,160,1080,138.7C1120,117,1160,107,1180,101.3L1200,96L1200,400L1180,400C1160,400,1120,400,1080,400C1040,400,1000,400,960,400C920,400,880,400,840,400C800,400,760,400,720,400C680,400,640,400,600,400C560,400,520,400,480,400C440,400,400,400,360,400C320,400,280,400,240,400C200,400,160,400,120,400C80,400,40,400,0,400Z"></path>
    </svg>
